<?xml version="1.0" encoding="UTF-8" standalone="no"?>
<!--?xml version="1.0" encoding="utf-8"?-->

<!-- Generator: Adobe Illustrator 22.1.0, SVG Export Plug-In . SVG Version: 6.00 Build 0)  -->

<svg
   version="1.1"
   id="_x37_"
   x="0px"
   y="0px"
   viewBox="0 0 698.06939 704.18789"
   xml:space="preserve"
   sodipodi:docname="k0160_0.svg"
   width="687.75317"
   height="693.78125"
   inkscape:export-filename="../Documents/sharevox-web/public/k0160_0.svg"
   inkscape:export-xdpi="96"
   inkscape:export-ydpi="96"
   xmlns:inkscape="http://www.inkscape.org/namespaces/inkscape"
   xmlns:sodipodi="http://sodipodi.sourceforge.net/DTD/sodipodi-0.dtd"
   xmlns="http://www.w3.org/2000/svg"
   xmlns:svg="http://www.w3.org/2000/svg"><defs
   id="defs11" /><sodipodi:namedview
   id="namedview9"
   pagecolor="#ffffff"
   bordercolor="#000000"
   borderopacity="0.25"
   inkscape:showpageshadow="2"
   inkscape:pageopacity="0.0"
   inkscape:pagecheckerboard="0"
   inkscape:deskcolor="#d1d1d1"
   showgrid="false" />
<style
   type="text/css"
   id="style2">
	.st0{fill:#B3B3B3;}
</style>
<g
   id="g6"
   style="fill:#d9998d;fill-opacity:1"
   transform="rotate(-47.119785,401.43318,422.11152)">
	<path
   class="st0"
   d="m 731.334,264.774 c 7.32,-15.151 11.415,-32.144 11.415,-50.094 0,-63.766 -51.688,-115.448 -115.447,-115.448 -7.151,0 -14.138,0.682 -20.929,1.938 C 581.503,42.547 523.438,1.443 455.748,1.443 401.194,1.443 352.899,28.178 323.185,69.242 305.547,62.717 286.469,59.159 266.546,59.159 179.5,59.159 108.36,127.194 103.32,212.983 44.646,230.99 2,285.6 2,350.154 c 0,78.568 63.108,142.332 141.393,143.47 23.995,45.757 71.91,76.994 127.16,76.994 39.858,0 75.897,-16.239 101.9,-42.457 13.553,26.203 45.605,42.841 78.22,46.804 51.032,6.217 86.129,-21.257 112.418,-54.349 22.215,14.085 48.557,21.093 76.783,22.282 C 734.477,546.901 798,474.777 798,382.242 798,337.796 782.1,292.956 731.334,264.774 Z"
   id="path4"
   style="fill:#d9998d;fill-opacity:1" />
</g>
<style
   type="text/css"
   id="style7188">
	.st0{fill:#B3B3B3;}
</style></svg>
