<?xml version="1.0" encoding="UTF-8" standalone="no"?>
<!--?xml version="1.0" encoding="utf-8"?-->

<!-- Generator: Adobe Illustrator 22.1.0, SVG Export Plug-In . SVG Version: 6.00 Build 0)  -->

<svg
   version="1.1"
   id="_x37_"
   x="0px"
   y="0px"
   viewBox="0 0 765.018 623.24797"
   xml:space="preserve"
   width="753.7124"
   height="614.03748"
   xmlns="http://www.w3.org/2000/svg"
   xmlns:svg="http://www.w3.org/2000/svg"><defs
   id="defs11" />
<style
   type="text/css"
   id="style2">
	.st0{fill:#B3B3B3;}
</style>
<g
   id="g6"
   style="fill:#e2dae1;fill-opacity:1"
   transform="rotate(-25.30581,397.18049,411.26746)">
	<path
   class="st0"
   d="m 731.334,264.774 c 7.32,-15.151 11.415,-32.144 11.415,-50.094 0,-63.766 -51.688,-115.448 -115.447,-115.448 -7.151,0 -14.138,0.682 -20.929,1.938 C 581.503,42.547 523.438,1.443 455.748,1.443 401.194,1.443 352.899,28.178 323.185,69.242 305.547,62.717 286.469,59.159 266.546,59.159 179.5,59.159 108.36,127.194 103.32,212.983 44.646,230.99 2,285.6 2,350.154 c 0,78.568 63.108,142.332 141.393,143.47 23.995,45.757 71.91,76.994 127.16,76.994 39.858,0 75.897,-16.239 101.9,-42.457 13.553,26.203 45.605,42.841 78.22,46.804 51.032,6.217 86.129,-21.257 112.418,-54.349 22.215,14.085 48.557,21.093 76.783,22.282 C 734.477,546.901 798,474.777 798,382.242 798,337.796 782.1,292.956 731.334,264.774 Z"
   id="path4"
   style="fill:#e2dae1;fill-opacity:1" />
</g>
<style
   type="text/css"
   id="style7188">
	.st0{fill:#B3B3B3;}
</style><g
   id="g9035"
   transform="matrix(0.65190856,-0.38504231,0.38504231,0.65190856,-3.4272799,261.9541)"
   style="fill:#d9998d;fill-opacity:1">
	<path
   class="st0"
   d="m 731.334,264.774 c 7.32,-15.151 11.415,-32.144 11.415,-50.094 0,-63.766 -51.688,-115.448 -115.447,-115.448 -7.151,0 -14.138,0.682 -20.929,1.938 C 581.503,42.547 523.438,1.443 455.748,1.443 401.194,1.443 352.899,28.178 323.185,69.242 305.547,62.717 286.469,59.159 266.546,59.159 179.5,59.159 108.36,127.194 103.32,212.983 44.646,230.99 2,285.6 2,350.154 c 0,78.568 63.108,142.332 141.393,143.47 23.995,45.757 71.91,76.994 127.16,76.994 39.858,0 75.897,-16.239 101.9,-42.457 13.553,26.203 45.605,42.841 78.22,46.804 51.032,6.217 86.129,-21.257 112.418,-54.349 22.215,14.085 48.557,21.093 76.783,22.282 C 734.477,546.901 798,474.777 798,382.242 798,337.796 782.1,292.956 731.334,264.774 Z"
   id="path9033"
   style="fill:#d9998d;fill-opacity:1" />
</g><g
   id="g7192"
   transform="matrix(0.42359671,-0.25019254,0.25019254,0.42359671,163.63319,282.07493)"
   style="fill:#912f4b;fill-opacity:1">
	<path
   class="st0"
   d="m 731.334,264.774 c 7.32,-15.151 11.415,-32.144 11.415,-50.094 0,-63.766 -51.688,-115.448 -115.447,-115.448 -7.151,0 -14.138,0.682 -20.929,1.938 C 581.503,42.547 523.438,1.443 455.748,1.443 401.194,1.443 352.899,28.178 323.185,69.242 305.547,62.717 286.469,59.159 266.546,59.159 179.5,59.159 108.36,127.194 103.32,212.983 44.646,230.99 2,285.6 2,350.154 c 0,78.568 63.108,142.332 141.393,143.47 23.995,45.757 71.91,76.994 127.16,76.994 39.858,0 75.897,-16.239 101.9,-42.457 13.553,26.203 45.605,42.841 78.22,46.804 51.032,6.217 86.129,-21.257 112.418,-54.349 22.215,14.085 48.557,21.093 76.783,22.282 C 734.477,546.901 798,474.777 798,382.242 798,337.796 782.1,292.956 731.334,264.774 Z"
   id="path7190"
   style="fill:#912f4b;fill-opacity:1" />
</g></svg>
