<?xml version="1.0" standalone="no"?>
<!DOCTYPE svg PUBLIC "-//W3C//DTD SVG 20010904//EN"
 "http://www.w3.org/TR/2001/REC-SVG-20010904/DTD/svg10.dtd">
<svg version="1.0" xmlns="http://www.w3.org/2000/svg"
 width="850.000000pt" height="850.000000pt" viewBox="0 0 850.000000 850.000000"
 preserveAspectRatio="xMidYMid meet">
<metadata>
Created by potrace 1.14, written by Peter Selinger 2001-2017
</metadata>
<g transform="translate(0.000000,850.000000) scale(0.100000,-0.100000)"
fill="#000000" stroke="none">
<path d="M5540 8075 c-431 -74 -764 -390 -856 -813 -21 -98 -26 -298 -8 -388
7 -38 13 -74 14 -81 0 -6 -26 -26 -57 -44 -88 -49 -490 -281 -928 -534 -93
-54 -255 -148 -360 -208 -104 -60 -194 -112 -200 -117 -5 -4 -35 -21 -65 -37
-30 -17 -156 -89 -280 -161 -124 -71 -332 -191 -462 -266 l-237 -137 -68 47
c-94 65 -216 121 -331 151 -127 33 -340 38 -471 10 -421 -90 -751 -438 -818
-859 -13 -86 -8 -290 11 -378 75 -357 339 -654 687 -773 183 -63 405 -71 594
-23 95 25 325 127 325 145 0 4 10 13 23 18 21 10 57 -9 308 -154 156 -90 356
-206 444 -256 88 -51 168 -96 177 -102 10 -5 55 -31 100 -58 l83 -47 1 -183
c1 -184 20 -357 54 -487 5 -19 11 -48 14 -63 8 -44 65 -223 96 -303 268 -673
816 -1197 1495 -1431 147 -50 296 -84 520 -118 69 -11 436 -14 515 -5 158 19
209 27 330 56 372 87 757 281 1030 519 69 60 261 255 300 304 19 24 40 48 45
55 6 6 26 34 45 61 19 28 38 55 43 60 23 27 102 156 146 238 105 197 190 430
235 646 23 111 27 136 44 261 9 74 9 438 -1 520 -5 36 -12 90 -17 120 -5 30
-12 69 -15 87 -11 64 -64 260 -95 348 -124 348 -314 649 -580 916 -261 262
-545 446 -881 572 -117 44 -316 100 -399 112 -25 4 -67 11 -95 16 -92 17 -188
24 -365 24 -241 0 -300 -7 -615 -71 -57 -11 -292 -93 -381 -132 -189 -84 -390
-206 -555 -338 -106 -85 -287 -266 -365 -364 -32 -41 -62 -77 -65 -80 -3 -3
-19 -25 -34 -50 -15 -25 -31 -47 -34 -50 -4 -3 -32 -45 -62 -95 -95 -156 -199
-386 -245 -540 -10 -33 -21 -64 -25 -69 -4 -4 -77 33 -163 83 -85 50 -160 91
-166 91 -5 0 -10 5 -10 10 0 6 -4 10 -8 10 -16 0 -507 289 -505 297 2 4 16 46
32 93 46 134 60 227 56 375 -2 72 -6 139 -9 150 -18 74 -38 147 -53 187 -9 26
-15 49 -12 51 3 4 238 139 323 187 17 9 130 74 251 145 121 70 236 136 255
147 19 11 49 27 65 37 51 30 487 282 535 309 25 14 74 42 109 64 34 21 65 38
67 38 3 0 122 69 154 90 8 6 22 13 30 17 8 4 65 36 125 71 61 36 126 74 145
84 19 11 64 37 100 58 36 21 81 47 100 58 19 10 85 49 147 84 l111 66 39 -40
c132 -137 338 -247 538 -289 67 -14 283 -18 360 -7 77 12 187 45 260 78 36 16
67 30 70 30 23 0 226 157 271 210 12 14 36 41 52 60 74 84 165 264 196 389 24
92 27 121 31 246 8 295 -97 552 -314 765 -146 143 -312 234 -506 275 -100 22
-286 27 -385 10z m303 -421 c119 -28 227 -90 312 -180 61 -64 74 -83 107 -154
44 -92 46 -99 57 -160 54 -313 -125 -610 -430 -712 -79 -26 -225 -32 -319 -12
-208 43 -395 216 -462 427 -26 82 -32 231 -13 317 41 177 165 337 326 418 46
24 95 45 109 48 14 2 41 8 60 13 55 13 186 10 253 -5z m-4233 -2578 c138 -46
191 -77 279 -166 182 -183 231 -463 122 -697 -36 -76 -70 -123 -132 -183 -67
-65 -77 -73 -160 -113 -400 -198 -868 76 -895 523 -15 244 119 478 337 588 46
24 113 49 149 56 80 17 238 13 300 -8z m4256 -169 c12 -3 45 -8 75 -12 197
-24 505 -133 714 -253 75 -43 236 -158 304 -217 57 -49 193 -188 231 -235 19
-24 40 -49 47 -55 6 -7 46 -63 87 -125 168 -248 286 -560 331 -875 13 -90 13
-422 -1 -520 -45 -326 -165 -640 -341 -894 -216 -311 -525 -569 -850 -711 -92
-41 -239 -94 -284 -104 -13 -3 -60 -14 -105 -25 -147 -36 -287 -49 -484 -46
-102 2 -201 6 -220 9 -272 46 -421 90 -620 184 -81 38 -243 129 -275 155 -5 4
-35 26 -65 49 -376 277 -651 685 -765 1138 -14 52 -27 112 -31 134 -3 21 -8
48 -10 60 -18 90 -25 423 -12 541 35 299 146 611 305 862 38 60 141 201 177
241 57 64 178 182 226 222 30 25 64 53 75 63 35 32 207 143 285 185 181 96
423 180 599 208 18 3 42 7 52 9 10 2 49 7 86 10 37 4 70 9 71 10 6 5 375 -3
398 -8z"/>
<path d="M5094 4232 c-31 -10 -68 -44 -82 -75 -9 -22 -12 -303 -12 -1284 l0
-1255 22 -39 c58 -103 223 -80 243 35 3 17 4 596 3 1286 -3 1237 -3 1255 -23
1282 -35 48 -95 67 -151 50z"/>
<path d="M4575 3770 c-11 -4 -33 -22 -50 -40 l-30 -31 -3 -810 c-2 -715 -1
-814 13 -842 47 -97 190 -100 237 -6 16 31 17 101 18 831 0 609 -3 804 -12
825 -29 66 -109 100 -173 73z"/>
<path d="M5599 3772 c-29 -13 -64 -47 -77 -75 -9 -22 -12 -210 -12 -822 0
-704 2 -798 16 -827 24 -51 61 -73 119 -73 59 0 96 23 120 75 14 31 15 122 13
840 -3 787 -3 806 -23 832 -11 14 -28 31 -38 37 -22 14 -96 22 -118 13z"/>
<path d="M6615 3570 c-11 -4 -33 -22 -50 -40 l-30 -31 -3 -610 c-2 -536 -1
-614 13 -642 47 -97 186 -100 237 -6 17 32 18 72 18 632 0 652 1 639 -57 681
-28 20 -96 29 -128 16z"/>
<path d="M6114 3362 c-31 -10 -68 -44 -82 -75 -9 -21 -12 -124 -11 -405 1
-207 4 -387 7 -400 4 -12 20 -35 35 -52 73 -77 207 -33 222 72 3 24 5 210 3
413 -3 352 -4 371 -23 397 -35 48 -95 67 -151 50z"/>
<path d="M4063 3303 c-32 -6 -82 -62 -88 -97 -4 -17 -5 -175 -3 -351 3 -302 4
-322 23 -347 24 -32 72 -58 110 -58 38 0 86 26 110 58 19 26 20 43 20 372 0
329 -1 346 -20 372 -11 14 -28 31 -37 37 -21 13 -85 21 -115 14z"/>
<path d="M7130 3132 c-81 -38 -92 -72 -88 -271 2 -118 7 -172 16 -186 58 -86
186 -82 234 6 17 30 18 54 16 204 -3 152 -5 173 -23 197 -11 14 -28 31 -38 38
-23 14 -97 22 -117 12z"/>
</g>
</svg>
